<svg width="409" height="400" viewBox="0 0 409 400" fill="none" xmlns="http://www.w3.org/2000/svg">
<path d="M0.5 0.5H408.5V0.628525V0.80149V0.980739V1.16625V1.35799V1.55594V1.76007V1.97036V2.18678V2.40932V2.63793V2.87261V3.11331V3.36003V3.61273V3.87138V4.13597V4.40647V4.68285V4.96509V5.25316V5.54704V5.8467V6.15212V6.46327V6.78013V7.10268V7.43088V7.76471V8.10415V8.44917V8.79976V9.15587V9.51749V9.88459V10.2572V10.6351V11.0185V11.4073V11.8015V12.2009V12.6057V13.0158V13.4311V13.8517V14.2774V14.7084V15.1445V15.5857V16.032V16.4834V16.9399V17.4014V17.8679V18.3394V18.8159V19.2973V19.7835V20.2747V20.7707V21.2716V21.7773V22.2877V22.8029V23.3229V23.8475V24.3768V24.9108V25.4494V25.9926V26.5404V27.0928V27.6497V28.2111V28.7769V29.3473V29.922V30.5012V31.0847V31.6726V32.2649V32.8614V33.4622V34.0673V34.6766V35.2901V35.9078V36.5297V37.1557V37.7857V38.4199V39.0581V39.7004V40.3466V40.9969V41.6511V42.3092V42.9712V43.6371V44.3069V44.9805V45.6579V46.3391V47.024V47.7127V48.405V49.1011V49.8008V50.5041V51.2111V51.9216V52.6357V53.3533V54.0744V54.799V55.527V56.2585V56.9933V57.7316V58.4732V59.2182V59.9664V60.7179V61.4727V62.2307V62.9919V63.7563V64.5239V65.2945V66.0683V66.8452V67.6251V68.408V69.194V69.9829V70.7748V71.5696V72.3673V73.1679V73.9713V74.7776V75.5867V76.3986V77.2132V78.0305V78.8505V79.6733V80.4986V81.3266V82.1573V82.9904V83.8262V84.6644V85.5052V86.3485V87.1942V88.0423V88.8928V89.7457V90.601V91.4586V92.3185V93.1807V94.0451V94.9118V95.7806V96.6517V97.5248V98.4002V99.2776V100.157V101.039V101.922V102.808V103.695V104.585V105.476V106.37V107.265V108.162V109.061V109.962V110.864V111.768V112.674V113.582V114.491V115.402V116.315V117.229V118.145V119.062V119.981V120.901V121.823V122.747V123.671V124.597V125.525V126.454V127.384V128.316V129.248V130.182V131.118V132.054V132.992V133.93V134.87V135.811V136.753V137.697V138.641V139.586V140.532V141.479V142.427V143.376V144.326V145.276V146.228V147.18V148.133V149.087V150.042V150.997V151.953V152.909V153.866V154.824V155.783V156.742V157.701V158.661V159.621V160.582V161.543V162.505V163.467V164.43V165.392V166.355V167.319V168.282V169.246V170.21V171.174V172.138V173.103V174.067V175.032V175.997V176.961V177.926V178.891V179.855V180.82V181.784V182.749V183.713V184.677V185.641V186.604V187.567V188.531V189.493V190.456V191.418V192.379V193.341V194.302V195.262V196.222V197.181V198.14V199.099V200.056V201.014V201.97V202.926V203.881V204.836V205.79V206.743V207.695V208.646V209.597V210.547V211.496V212.444V213.391V214.337V215.282V216.226V217.169V218.111V219.053V219.992V220.931V221.869V222.805V223.741V224.675V225.607V226.539V227.469V228.398V229.325V230.252V231.176V232.1V233.021V233.942V234.861V235.778V236.694V237.608V238.521V239.432V240.341V241.249V242.155V243.059V243.961V244.862V245.761V246.658V247.553V248.447V249.338V250.227V251.115V252.001V252.884V253.766V254.645V255.523V256.398V257.271V258.142V259.011V259.878V260.742V261.604V262.464V263.322V264.177V265.03V265.881V266.729V267.574V268.418V269.258V270.097V270.932V271.766V272.596V273.424V274.25V275.072V275.892V276.71V277.524V278.336V279.145V279.952V280.755V281.556V282.353V283.148V283.94V284.729V285.515V286.298V287.078V287.855V288.628V289.399V290.167V290.931V291.692V292.45V293.205V293.956V294.705V295.45V296.191V296.93V297.664V298.396V299.124V299.848V300.57V301.287V302.001V302.712V303.419V304.122V304.822V305.518V306.21V306.899V307.584V308.265V308.942V309.616V310.286V310.952V311.614V312.272V312.926V313.576V314.222V314.865V315.503V316.137V316.767V317.393V318.015V318.633V319.246V319.856V320.461V321.061V321.658V322.25V322.838V323.422V324.001V324.576V325.146V325.712V326.273V326.83V327.382V327.93V328.473V329.012V329.546V330.075V330.6V331.12V331.635V332.146V332.651V333.152V333.648V334.139V334.626V335.107V335.583V336.055V336.521V336.983V337.439V337.891V338.337V338.778V339.215V339.645V340.071V340.492V340.907V341.317V341.722V342.121V342.516V342.904V343.288V343.666V344.038V344.405V344.767V345.123V345.474V345.819V346.158V346.492V346.82V347.143V347.46V347.771V348.076V348.376V348.67V348.958V349.24V349.516V349.787V350.051V350.31V350.563V350.81V351.05V351.285V351.514V351.736V351.952V352.163V352.367V352.565V352.757V352.942V353.121V353.294V353.461V353.621V353.775V353.923C408.5 360.5 408.496 363.698 407.698 366.674C407.099 368.908 406.173 371.041 404.951 373.005C403.323 375.62 400.991 377.808 396.187 382.301L389.007 389.018C384.624 393.119 382.491 395.109 380.025 396.493C378.173 397.533 376.188 398.316 374.125 398.823C371.379 399.497 368.462 399.5 362.46 399.5H24.1517C20.9949 399.5 19.5035 399.496 18.1106 399.139C17.0591 398.869 16.0511 398.451 15.1166 397.899C13.8788 397.167 12.8217 396.115 10.5894 393.882L6.11769 389.411C3.88546 387.178 2.83352 386.121 2.10147 384.883C1.54882 383.949 1.13129 382.941 0.861293 381.889C0.503653 380.496 0.5 379.005 0.5 375.848V0.5Z" fill="white" stroke="#5171E0"/>
</svg>