<svg width="409" height="519" viewBox="0 0 409 519" fill="none" xmlns="http://www.w3.org/2000/svg">
<g filter="url(#filter0_b_4399_12276)">
<path d="M0 0H409C409 25.7836 409 445.003 409 470.786C409 477.641 409 481.068 408.181 484.264C407.569 486.651 406.624 488.931 405.376 491.03C403.705 493.838 401.313 496.18 396.529 500.863L389.349 507.891C384.983 512.164 382.801 514.301 380.27 515.787C378.378 516.898 376.351 517.735 374.245 518.276C371.426 519 368.437 519 362.46 519H24.1517C21.0203 519 19.4546 519 17.9863 518.606C16.889 518.311 15.8372 517.855 14.8621 517.251C13.5572 516.444 12.4501 515.285 10.2359 512.969L5.76413 508.29C3.5499 505.973 2.44278 504.814 1.6711 503.449C1.09442 502.428 0.658733 501.328 0.377002 500.18C-2.98023e-07 498.643 0 497.005 0 493.728V0Z" fill="white"/>
<path d="M0.5 0.5H408.5V0.675968V0.867208V1.06728V1.27614V1.49376V1.72011V1.95515V2.19883V2.45114V2.71203V2.98146V3.25941V3.54584V3.84071V4.14399V4.45563V4.77562V5.1039V5.44046V5.78524V6.13822V6.49936V6.86862V7.24598V7.63139V8.02482V8.42624V8.83561V9.25289V9.67805V10.1111V10.5519V11.0005V11.4568V11.9208V12.3925V12.8718V13.3588V13.8533V14.3553V14.8648V15.3818V15.9061V16.4379V16.9771V17.5235V18.0772V18.6382V19.2064V19.7818V20.3643V20.9539V21.5505V22.1543V22.765V23.3826V24.0073V24.6388V25.2771V25.9223V26.5743V27.233V27.8984V28.5706V29.2494V29.9347V30.6267V31.3252V32.0303V32.7417V33.4597V34.184V34.9147V35.6517V36.3951V37.1446V37.9005V38.6625V39.4306V40.2049V40.9853V41.7717V42.5641V43.3625V44.1669V44.9771V45.7933V46.6153V47.4431V48.2766V49.1159V49.9609V50.8115V51.6678V52.5297V53.3971V54.27V55.1485V56.0324V56.9217V57.8164V58.7164V59.6217V60.5324V61.4482V62.3693V63.2955V64.2269V65.1634V66.1049V67.0515V68.0031V68.9596V69.921V70.8874V71.8586V72.8346V73.8154V74.8009V75.7912V76.7861V77.7857V78.7899V79.7987V80.812V81.8298V82.8521V83.8788V84.9099V85.9453V86.9851V88.0292V89.0775V90.1301V91.1868V92.2477V93.3127V94.3818V95.4549V96.5321V97.6132V98.6983V99.7872V100.88V101.977V103.077V104.181V105.289V106.401V107.516V108.635V109.758V110.884V112.013V113.147V114.283V115.423V116.566V117.713V118.863V120.016V121.173V122.332V123.495V124.661V125.83V127.002V128.177V129.356V130.537V131.721V132.908V134.097V135.29V136.485V137.683V138.884V140.088V141.294V142.502V143.714V144.927V146.144V147.362V148.584V149.807V151.033V152.261V153.492V154.725V155.96V157.197V158.436V159.678V160.921V162.167V163.414V164.664V165.915V167.169V168.424V169.681V170.94V172.201V173.463V174.727V175.993V177.26V178.529V179.799V181.071V182.345V183.62V184.896V186.173V187.452V188.733V190.014V191.297V192.581V193.866V195.152V196.44V197.728V199.018V200.308V201.599V202.892V204.185V205.479V206.774V208.069V209.366V210.663V211.96V213.259V214.558V215.857V217.157V218.458V219.759V221.06V222.362V223.664V224.966V226.269V227.572V228.875V230.179V231.482V232.786V234.089V235.393V236.697V238.001V239.304V240.608V241.911V243.214V244.517V245.82V247.122V248.424V249.726V251.028V252.329V253.629V254.929V256.229V257.528V258.826V260.124V261.421V262.717V264.012V265.307V266.601V267.894V269.187V270.478V271.769V273.058V274.346V275.634V276.92V278.205V279.489V280.772V282.053V283.334V284.613V285.89V287.167V288.441V289.715V290.987V292.257V293.526V294.794V296.059V297.323V298.586V299.846V301.105V302.362V303.617V304.871V306.122V307.372V308.619V309.865V311.108V312.35V313.589V314.826V316.061V317.294V318.525V319.753V320.979V322.203V323.424V324.643V325.859V327.073V328.284V329.493V330.699V331.902V333.103V334.301V335.496V336.689V337.879V339.066V340.25V341.431V342.609V343.784V344.956V346.125V347.291V348.454V349.614V350.77V351.923V353.073V354.22V355.363V356.503V357.64V358.773V359.902V361.028V362.151V363.27V364.385V365.497V366.605V367.709V368.809V369.906V370.999V372.088V373.173V374.254V375.331V376.404V377.473V378.539V379.599V380.656V381.709V382.757V383.801V384.841V385.876V386.907V387.934V388.956V389.974V390.988V391.996V393V394V394.995V395.985V396.971V397.952V398.928V399.899V400.865V401.827V402.783V403.735V404.681V405.623V406.559V407.491V408.417V409.338V410.254V411.164V412.07V412.97V413.865V414.754V415.638V416.516V417.389V418.257V419.118V419.975V420.825V421.67V422.51V423.343V424.171V424.993V425.809V426.619V427.424V428.222V429.015V429.801V430.581V431.356V432.124V432.886V433.642V434.391V435.134V435.872V436.602V437.327V438.044V438.756V439.461V440.16V440.851V441.537V442.216V442.888V443.553V444.212V444.864V445.509V446.147V446.779V447.404V448.021V448.632V449.236V449.832V450.422V451.004V451.58V452.148V452.709V453.263V453.809V454.348V454.88V455.404V455.921V456.431V456.933V457.427V457.914V458.394V458.865V459.329V459.786V460.234V460.675V461.108V461.533V461.951V462.36V462.761V463.155V463.54V463.918V464.287V464.648V465.001V465.346V465.682V466.011V466.331V466.642V466.946V467.24V467.527V467.805V468.074V468.335V468.587V468.831V469.066V469.292V469.51V469.719V469.919V470.11V470.293V470.466V470.631V470.786C408.5 477.666 408.496 481.019 407.697 484.14C407.097 486.481 406.17 488.717 404.946 490.774C403.316 493.514 400.982 495.804 396.179 500.505L388.999 507.534C384.616 511.824 382.482 513.908 380.017 515.356C378.165 516.443 376.181 517.263 374.12 517.792C371.377 518.496 368.463 518.5 362.46 518.5H24.1517C20.9938 518.5 19.5058 518.496 18.116 518.123C17.0662 517.841 16.0592 517.404 15.1252 516.826C13.8873 516.06 12.8297 514.959 10.5973 512.623L6.12561 507.944C3.89433 505.609 2.84028 504.501 2.10638 503.203C1.5524 502.223 1.13353 501.165 0.862597 500.061C0.503356 498.596 0.5 497.029 0.5 493.728V0.5Z" stroke="#5171E0"/>
</g>
<defs>
<filter id="filter0_b_4399_12276" x="-32" y="-32" width="473" height="583" filterUnits="userSpaceOnUse" color-interpolation-filters="sRGB">
<feFlood flood-opacity="0" result="BackgroundImageFix"/>
<feGaussianBlur in="BackgroundImageFix" stdDeviation="16"/>
<feComposite in2="SourceAlpha" operator="in" result="effect1_backgroundBlur_4399_12276"/>
<feBlend mode="normal" in="SourceGraphic" in2="effect1_backgroundBlur_4399_12276" result="shape"/>
</filter>
</defs>
</svg>