<svg width="408" height="520" viewBox="0 0 408 520" fill="none" xmlns="http://www.w3.org/2000/svg">
<mask id="mask0_2396_83959" style="mask-type:alpha" maskUnits="userSpaceOnUse" x="0" y="0" width="408" height="520">
<path d="M0 13.12C0 8.3373 0 5.94595 0.989547 4.14597C1.72089 2.81566 2.81566 1.72089 4.14597 0.989547C5.94595 0 8.3373 0 13.12 0H408C408 25.8333 408 445.86 408 471.693C408 478.561 408 481.995 407.181 485.197C406.569 487.589 405.624 489.873 404.376 491.976C402.705 494.79 400.313 497.136 395.529 501.828L388.349 508.87C383.983 513.151 381.801 515.292 379.27 516.781C377.378 517.894 375.351 518.733 373.245 519.275C370.426 520 367.437 520 361.46 520H24.1517C21.0203 520 19.4546 520 17.9863 519.605C16.889 519.309 15.8372 518.853 14.8621 518.248C13.5572 517.439 12.4501 516.278 10.2359 513.957L5.76413 509.269C3.5499 506.947 2.44278 505.787 1.6711 504.419C1.09442 503.397 0.658733 502.294 0.377002 501.143C-2.98023e-07 499.604 0 497.963 0 494.68V13.12Z" fill="#0D214B"/>
</mask>
<g mask="url(#mask0_2396_83959)">
<g opacity="0.8">
<g filter="url(#filter0_f_2396_83959)">
<path d="M121.137 329.877C81.6419 329.828 42.15 320.715 5.92339 302.559C-32.6961 283.204 -74.7441 273.316 -116.863 272.93V293.983C-77.9852 294.368 -39.1742 303.508 -3.522 321.377C35.6723 341.02 78.4013 350.88 121.137 350.93V329.877Z" fill="#68D4D4"/>
<path d="M359.137 293.982C319.642 294.031 280.15 303.144 243.923 321.3C205.304 340.656 163.256 350.543 121.137 350.93V329.877C160.015 329.491 198.826 320.351 234.478 302.482C273.672 282.839 316.401 272.979 359.137 272.93V293.982Z" fill="#68D4D4"/>
<path d="M597.137 329.877C557.642 329.828 518.15 320.715 481.923 302.559C443.304 283.204 401.256 273.316 359.137 272.93V293.983C398.015 294.368 436.826 303.508 472.478 321.377C511.672 341.02 554.401 350.88 597.137 350.93V329.877Z" fill="#68D4D4"/>
</g>
<g filter="url(#filter1_f_2396_83959)">
<path d="M124.68 293.982C85.1849 294.031 45.693 303.144 9.46635 321.3C-29.1531 340.656 -71.2012 350.543 -113.32 350.93V329.877C-74.4422 329.491 -35.6312 320.351 0.0209656 302.482C39.2153 282.839 81.9442 272.979 124.68 272.93V293.982Z" fill="#68D4D4"/>
<path d="M362.68 329.877C323.185 329.828 283.693 320.715 247.466 302.559C208.847 283.204 166.799 273.316 124.68 272.93V293.983C163.558 294.368 202.369 303.508 238.021 321.377C277.215 341.02 319.944 350.88 362.68 350.93V329.877Z" fill="#68D4D4"/>
<path d="M600.68 293.982C561.185 294.031 521.693 303.144 485.466 321.3C446.847 340.656 404.799 350.543 362.68 350.93V329.877C401.558 329.491 440.369 320.351 476.021 302.482C515.215 282.839 557.944 272.979 600.68 272.93V293.982Z" fill="#68D4D4"/>
</g>
<g filter="url(#filter2_f_2396_83959)">
<path d="M26.3281 293.982C-13.1667 294.031 -52.6586 303.144 -88.8852 321.3C-127.505 340.656 -169.553 350.543 -211.672 350.93V329.877C-172.794 329.491 -133.983 320.351 -98.3306 302.482C-59.1363 282.839 -16.4073 272.979 26.3281 272.93V293.982Z" fill="#68D4D4"/>
<path d="M264.328 329.877C224.833 329.828 185.341 320.715 149.115 302.559C110.495 283.204 68.4473 273.316 26.3281 272.93V293.983C65.2062 294.368 104.017 303.508 139.669 321.377C178.864 341.02 221.593 350.88 264.328 350.93V329.877Z" fill="#68D4D4"/>
<path d="M502.328 293.982C462.833 294.031 423.341 303.144 387.115 321.3C348.495 340.656 306.447 350.543 264.328 350.93V329.877C303.206 329.491 342.017 320.351 377.669 302.482C416.864 282.839 459.593 272.979 502.328 272.93V293.982Z" fill="#68D4D4"/>
</g>
<g filter="url(#filter3_f_2396_83959)">
<path d="M133.516 293.982C94.0208 294.031 54.5289 303.144 18.3023 321.3C-20.3172 340.656 -62.3652 350.543 -104.484 350.93V329.877C-65.6063 329.491 -26.7952 320.351 8.8569 302.482C48.0512 282.839 90.7802 272.979 133.516 272.93V293.982Z" fill="#68D4D4"/>
<path d="M371.516 329.877C332.021 329.828 292.529 320.715 256.302 302.559C217.683 283.204 175.635 273.316 133.516 272.93V293.983C172.394 294.368 211.205 303.508 246.857 321.377C286.051 341.02 328.78 350.88 371.516 350.93V329.877Z" fill="#68D4D4"/>
<path d="M609.516 293.982C570.021 294.031 530.529 303.144 494.302 321.3C455.683 340.656 413.635 350.543 371.516 350.93V329.877C410.394 329.491 449.205 320.351 484.857 302.482C524.051 282.839 566.78 272.979 609.516 272.93V293.982Z" fill="#68D4D4"/>
</g>
<g filter="url(#filter4_f_2396_83959)">
<path d="M184 320.948C144.505 320.898 105.013 311.786 68.7867 293.629C30.1672 274.274 -11.8809 264.386 -54 264V285.053C-15.1219 285.438 23.6891 294.579 59.3413 312.447C98.5356 332.091 141.265 341.95 184 342V320.948Z" fill="#68D4D4"/>
<path d="M422 285.052C382.505 285.101 343.013 294.214 306.787 312.371C268.167 331.726 226.119 341.614 184 342V320.947C222.878 320.562 261.689 311.421 297.341 293.553C336.536 273.909 379.265 264.049 422 264V285.052Z" fill="#68D4D4"/>
</g>
<g style="mix-blend-mode:soft-light" filter="url(#filter5_f_2396_83959)">
<path d="M53.5312 286.93C26.7408 286.93 -0.0496521 284.928 -26.6172 280.923C-53.0863 276.934 -79.7775 274.939 -106.469 274.939V272.93C-79.6784 272.93 -52.888 274.932 -26.3205 278.936C0.148682 282.925 26.84 284.92 53.5312 284.92V286.93Z" fill="white"/>
<path d="M213.531 272.93C186.741 272.93 159.95 274.932 133.383 278.936C106.914 282.925 80.2225 284.92 53.5312 284.92V286.93C80.3216 286.93 107.112 284.928 133.68 280.923C160.149 276.934 186.84 274.939 213.531 274.939V272.93Z" fill="white"/>
<path d="M373.531 286.93C346.741 286.93 319.95 284.928 293.383 280.923C266.914 276.934 240.222 274.939 213.531 274.939V272.93C240.322 272.93 267.112 274.932 293.68 278.936C320.149 282.925 346.84 284.92 373.531 284.92V286.93Z" fill="white"/>
</g>
<g opacity="0.4" filter="url(#filter6_f_2396_83959)">
<path d="M16.3398 284.094C-10.4506 284.094 -37.2411 286.096 -63.8086 290.1C-90.2777 294.089 -116.969 296.084 -143.66 296.084V298.094C-116.87 298.094 -90.0794 296.092 -63.5119 292.087C-37.0427 288.098 -10.3514 286.103 16.3398 286.103V284.094Z" fill="white"/>
<path d="M176.34 298.094C149.549 298.094 122.759 296.092 96.1914 292.087C69.7223 288.098 43.0311 286.103 16.3398 286.103V284.094C43.1302 284.094 69.9206 286.096 96.4881 290.1C122.957 294.089 149.649 296.084 176.34 296.084V298.094Z" fill="white"/>
<path d="M336.34 284.094C309.549 284.094 282.759 286.096 256.191 290.1C229.722 294.089 203.031 296.084 176.34 296.084V298.094C203.13 298.094 229.921 296.092 256.488 292.087C282.957 288.098 309.649 286.103 336.34 286.103V284.094Z" fill="white"/>
<path d="M496.34 298.094C469.549 298.094 442.759 296.092 416.191 292.087C389.722 288.098 363.031 286.103 336.34 286.103V284.094C363.13 284.094 389.921 286.096 416.488 290.1C442.957 294.089 469.649 296.084 496.34 296.084V298.094Z" fill="white"/>
</g>
</g>
</g>
<defs>
<filter id="filter0_f_2396_83959" x="-156.863" y="232.93" width="1142.86" height="167.07" filterUnits="userSpaceOnUse" color-interpolation-filters="sRGB">
<feFlood flood-opacity="0" result="BackgroundImageFix"/>
<feBlend mode="normal" in="SourceGraphic" in2="BackgroundImageFix" result="shape"/>
<feGaussianBlur stdDeviation="20" result="effect1_foregroundBlur_2396_83959"/>
</filter>
<filter id="filter1_f_2396_83959" x="-391.32" y="232.93" width="1142.86" height="167.07" filterUnits="userSpaceOnUse" color-interpolation-filters="sRGB">
<feFlood flood-opacity="0" result="BackgroundImageFix"/>
<feBlend mode="normal" in="SourceGraphic" in2="BackgroundImageFix" result="shape"/>
<feGaussianBlur stdDeviation="20" result="effect1_foregroundBlur_2396_83959"/>
</filter>
<filter id="filter2_f_2396_83959" x="-489.672" y="232.93" width="1142.86" height="167.07" filterUnits="userSpaceOnUse" color-interpolation-filters="sRGB">
<feFlood flood-opacity="0" result="BackgroundImageFix"/>
<feBlend mode="normal" in="SourceGraphic" in2="BackgroundImageFix" result="shape"/>
<feGaussianBlur stdDeviation="20" result="effect1_foregroundBlur_2396_83959"/>
</filter>
<filter id="filter3_f_2396_83959" x="-402.484" y="212.93" width="1182.86" height="207.07" filterUnits="userSpaceOnUse" color-interpolation-filters="sRGB">
<feFlood flood-opacity="0" result="BackgroundImageFix"/>
<feBlend mode="normal" in="SourceGraphic" in2="BackgroundImageFix" result="shape"/>
<feGaussianBlur stdDeviation="30" result="effect1_foregroundBlur_2396_83959"/>
</filter>
<filter id="filter4_f_2396_83959" x="-550" y="244" width="1102.86" height="127.07" filterUnits="userSpaceOnUse" color-interpolation-filters="sRGB">
<feFlood flood-opacity="0" result="BackgroundImageFix"/>
<feBlend mode="normal" in="SourceGraphic" in2="BackgroundImageFix" result="shape"/>
<feGaussianBlur stdDeviation="10" result="effect1_foregroundBlur_2396_83959"/>
</filter>
<filter id="filter5_f_2396_83959" x="-275.469" y="263.93" width="732.531" height="33.627" filterUnits="userSpaceOnUse" color-interpolation-filters="sRGB">
<feFlood flood-opacity="0" result="BackgroundImageFix"/>
<feBlend mode="normal" in="SourceGraphic" in2="BackgroundImageFix" result="shape"/>
<feGaussianBlur stdDeviation="4.5" result="effect1_foregroundBlur_2396_83959"/>
</filter>
<filter id="filter6_f_2396_83959" x="-149.66" y="278.094" width="726.531" height="27.627" filterUnits="userSpaceOnUse" color-interpolation-filters="sRGB">
<feFlood flood-opacity="0" result="BackgroundImageFix"/>
<feBlend mode="normal" in="SourceGraphic" in2="BackgroundImageFix" result="shape"/>
<feGaussianBlur stdDeviation="3" result="effect1_foregroundBlur_2396_83959"/>
</filter>
</defs>
</svg>